<svg width="85" height="50" viewBox="0 0 85 50" fill="none" xmlns="http://www.w3.org/2000/svg">
<g id="3">
<path id="Vector" d="M24.4658 18.1591C24.4658 19.188 24.5766 20.0222 24.7706 20.634C24.9922 21.2458 25.2692 21.9132 25.6571 22.6363C25.7956 22.8587 25.851 23.0812 25.851 23.2759C25.851 23.554 25.6848 23.832 25.3246 24.1101L23.5793 25.2781C23.33 25.4449 23.0807 25.5284 22.8591 25.5284C22.582 25.5284 22.305 25.3893 22.028 25.139C21.6401 24.7219 21.3077 24.277 21.0307 23.832C20.7536 23.3593 20.4766 22.8309 20.1719 22.1913C18.011 24.7497 15.2961 26.0289 12.0272 26.0289C9.70012 26.0289 7.84402 25.3615 6.48658 24.0267C5.12913 22.6919 4.43655 20.9121 4.43655 18.6874C4.43655 16.3237 5.26764 14.4049 6.95753 12.9588C8.64741 11.5128 10.8914 10.7898 13.7448 10.7898C14.6867 10.7898 15.6563 10.8732 16.6813 11.0122C17.7063 11.1513 18.759 11.3738 19.8671 11.624V9.59399C19.8671 7.48053 19.4239 6.00667 18.5651 5.14461C17.6786 4.28254 16.1826 3.86541 14.0495 3.86541C13.0799 3.86541 12.0826 3.97664 11.0576 4.22692C10.0326 4.4772 9.03525 4.78309 8.06565 5.17241C7.6224 5.36707 7.28996 5.47831 7.09604 5.53393C6.90212 5.58954 6.76361 5.61735 6.65279 5.61735C6.26495 5.61735 6.07103 5.33927 6.07103 4.75528V3.39266C6.07103 2.94772 6.12644 2.61402 6.26495 2.41935C6.40347 2.22469 6.65279 2.03003 7.04064 1.83537C8.01024 1.33482 9.17377 0.917686 10.5312 0.583982C11.8887 0.222469 13.3292 0.0556173 14.8529 0.0556173C18.1495 0.0556173 20.5597 0.806451 22.1111 2.30812C23.6347 3.80979 24.4104 6.0901 24.4104 9.14906V18.1591H24.4658ZM13.2184 22.386C14.1326 22.386 15.0745 22.2191 16.0718 21.8854C17.0691 21.5517 17.9556 20.9399 18.7036 20.1057C19.1468 19.5773 19.4793 18.9933 19.6455 18.3259C19.8117 17.6585 19.9225 16.8521 19.9225 15.9066V14.7386C19.1191 14.5439 18.2604 14.3771 17.3739 14.2659C16.4874 14.1546 15.6286 14.099 14.7698 14.099C12.9137 14.099 11.5562 14.4605 10.642 15.2113C9.72783 15.9622 9.28458 17.0189 9.28458 18.4093C9.28458 19.7164 9.61701 20.6897 10.3096 21.3571C10.9745 22.0523 11.9441 22.386 13.2184 22.386ZM35.4639 25.3893C34.9653 25.3893 34.6328 25.3059 34.4112 25.1112C34.1896 24.9444 33.9957 24.5551 33.8294 24.0267L27.3192 2.53059C27.153 1.97442 27.0699 1.6129 27.0699 1.41824C27.0699 0.973304 27.2915 0.723026 27.7348 0.723026H30.4497C30.976 0.723026 31.3362 0.806452 31.5301 1.00111C31.7517 1.16796 31.9179 1.55729 32.0842 2.08565L36.7383 20.495L41.0599 2.08565C41.1984 1.52948 41.3647 1.16796 41.5863 1.00111C41.8079 0.83426 42.1957 0.723026 42.6944 0.723026H44.9106C45.437 0.723026 45.7971 0.806452 46.0188 1.00111C46.2404 1.16796 46.4343 1.55729 46.5451 2.08565L50.9222 20.7175L55.7148 2.08565C55.881 1.52948 56.0749 1.16796 56.2689 1.00111C56.4905 0.83426 56.8506 0.723026 57.3493 0.723026H59.9257C60.3689 0.723026 60.6182 0.945495 60.6182 1.41824C60.6182 1.55729 60.5905 1.69633 60.5628 1.86318C60.5351 2.03003 60.4797 2.2525 60.3689 2.5584L53.6925 24.0545C53.5263 24.6107 53.3324 24.9722 53.1107 25.139C52.8891 25.3059 52.529 25.4171 52.058 25.4171H49.6756C49.1492 25.4171 48.7891 25.3337 48.5674 25.139C48.3458 24.9444 48.1519 24.5829 48.0411 24.0267L43.7471 6.0901L39.4809 23.9989C39.3423 24.5551 39.1761 24.9166 38.9545 25.1112C38.7329 25.3059 38.345 25.3893 37.8464 25.3893H35.4639ZM71.0623 26.1402C69.6217 26.1402 68.1812 25.9733 66.796 25.6396C65.4109 25.3059 64.3304 24.9444 63.6102 24.5273C63.1669 24.277 62.8622 23.9989 62.7514 23.7486C62.6406 23.4983 62.5852 23.2202 62.5852 22.97V21.5517C62.5852 20.9677 62.8068 20.6897 63.2223 20.6897C63.3885 20.6897 63.5548 20.7175 63.721 20.7731C63.8872 20.8287 64.1365 20.9399 64.4136 21.0512C65.3555 21.4683 66.3805 21.802 67.4609 22.0245C68.569 22.2469 69.6494 22.3582 70.7575 22.3582C72.5028 22.3582 73.8603 22.0523 74.8022 21.4405C75.7441 20.8287 76.2427 19.9388 76.2427 18.7987C76.2427 18.02 75.9934 17.3804 75.4948 16.8521C74.9961 16.3237 74.0542 15.8509 72.6967 15.406L68.6798 14.1546C66.6575 13.515 65.1615 12.5695 64.2473 11.3181C63.3331 10.0946 62.8622 8.73193 62.8622 7.28587C62.8622 6.11791 63.1115 5.08899 63.6102 4.19911C64.1088 3.30923 64.7737 2.53059 65.6048 1.9188C66.4359 1.2792 67.3778 0.806452 68.4859 0.472748C69.594 0.139043 70.7575 0 71.9765 0C72.5859 0 73.2231 0.0278087 73.8326 0.111235C74.4697 0.194661 75.0515 0.305895 75.6333 0.41713C76.1873 0.556174 76.7137 0.695217 77.2123 0.862069C77.711 1.02892 78.0988 1.19577 78.3759 1.36263C78.7637 1.58509 79.0407 1.80756 79.207 2.05784C79.3732 2.28031 79.4563 2.58621 79.4563 2.97553V4.28254C79.4563 4.86652 79.2347 5.17241 78.8191 5.17241C78.5975 5.17241 78.2373 5.06118 77.7664 4.83871C76.1873 4.11568 74.4143 3.75417 72.4474 3.75417C70.8684 3.75417 69.6217 4.00445 68.7629 4.53281C67.9041 5.06118 67.4609 5.86763 67.4609 7.00779C67.4609 7.78643 67.7379 8.45384 68.292 8.9822C68.846 9.51057 69.871 10.0389 71.3393 10.5117L75.2731 11.7631C77.2677 12.4027 78.7083 13.2925 79.5671 14.4327C80.4259 15.5729 80.8414 16.8799 80.8414 18.3259C80.8414 19.5217 80.5921 20.6062 80.1211 21.5517C79.6225 22.4972 78.9576 23.3315 78.0988 23.9989C77.24 24.6941 76.215 25.1947 75.0238 25.5562C73.7772 25.9455 72.4751 26.1402 71.0623 26.1402Z" fill="#252F3E"/>
<g id="Group">
<path id="Vector_2" fill-rule="evenodd" clip-rule="evenodd" d="M76.2988 39.6552C67.1845 46.4127 53.9425 50 42.5566 50C26.5996 50 12.2218 44.0767 1.3622 34.2325C0.50341 33.4538 1.27909 32.3971 2.30411 33.0089C14.0502 39.8498 28.5388 43.9933 43.5262 43.9933C53.6378 43.9933 64.7467 41.8799 74.9691 37.5417C76.4928 36.8465 77.7948 38.5428 76.2988 39.6552Z" fill="#FF9900"/>
<path id="Vector_3" fill-rule="evenodd" clip-rule="evenodd" d="M80.0942 35.3175C78.9306 33.8159 72.3927 34.5945 69.4285 34.956C68.542 35.0672 68.4035 34.2886 69.2069 33.7046C74.415 30.0339 82.9753 31.0906 83.9726 32.3142C84.9699 33.5656 83.6956 42.1585 78.8198 46.2741C78.0718 46.9137 77.3516 46.58 77.684 45.7458C78.7921 42.9927 81.2577 36.7914 80.0942 35.3175Z" fill="#FF9900"/>
</g>
</g>
</svg>
