<svg width="96" height="50" viewBox="0 0 96 50" fill="none" xmlns="http://www.w3.org/2000/svg">
<g id="5">
<path id="Vector" d="M31.3227 49.7064H27.1572V33.2227H31.3227V49.7064Z" fill="#C4122E"/>
<g id="Group">
<g id="Group_2">
<path id="Vector_2" d="M64.9085 37.9458C64.737 37.8589 63.3964 37.0658 61.4041 37.0658C58.7112 37.0658 56.8429 38.9366 56.8429 41.4624C56.8429 43.9117 58.6307 45.863 61.4041 45.863C63.3621 45.863 64.7251 45.0856 64.9085 44.9881V49.4124C64.386 49.5573 62.9624 49.9987 61.1125 49.9987C56.4272 49.9987 52.3146 46.7734 52.3146 41.4611C52.3146 36.5401 56.0354 32.93 61.1125 32.93C63.0653 32.93 64.514 33.4043 64.9085 33.5216V37.9458ZM21.4295 37.9458C21.2619 37.8589 19.9227 37.0658 17.9303 37.0658C15.2321 37.0658 13.3651 38.9366 13.3651 41.4624C13.3651 43.9117 15.1543 45.863 17.9303 45.863C19.8884 45.863 21.25 45.0856 21.4295 44.9881V49.4124C20.9122 49.5573 19.4899 49.9987 17.6295 49.9987C12.9482 49.9987 8.84082 46.7734 8.84082 41.4611C8.84082 36.5401 12.5616 32.93 17.6308 32.93C19.5915 32.93 21.0376 33.4043 21.4295 33.5216V37.9458ZM78.0117 37.1277C75.5405 37.1277 73.7051 39.0697 73.7051 41.4624C73.7051 43.8603 75.5405 45.8011 78.0117 45.8011C80.4804 45.8011 82.321 43.8603 82.321 41.4624C82.321 39.0697 80.4804 37.1277 78.0117 37.1277ZM86.7345 41.4624C86.7345 46.1778 83.0889 49.9987 78.013 49.9987C72.9346 49.9987 69.2943 46.1779 69.2943 41.4611C69.2943 36.7548 72.9359 32.93 78.0117 32.93C83.0889 32.93 86.7345 36.7548 86.7345 41.4624ZM47.1174 36.9696C47.0554 36.9498 45.3018 36.4663 43.861 36.4663C42.192 36.4663 41.2842 37.0249 41.2842 37.8168C41.2842 38.8207 42.5086 39.1711 43.1934 39.3872L44.3426 39.7522C47.0474 40.6113 48.2785 42.4597 48.2785 44.4677C48.2785 48.6087 44.6316 50 41.4438 50C39.2285 50 37.1531 49.5916 36.9486 49.5494V45.7549C37.3154 45.8471 39.0623 46.3689 40.8818 46.3689C42.9546 46.3689 43.9072 45.7629 43.9072 44.83C43.9072 43.9947 43.0826 43.5125 42.0495 43.1883C41.7988 43.104 41.4188 42.9854 41.1602 42.9011C38.8406 42.1685 36.9063 40.8062 36.9063 38.0789C36.9063 34.9959 39.218 32.926 43.0575 32.926C45.0855 32.926 46.9933 33.4175 47.1174 33.4504V36.9682V36.9696Z" fill="#C4122E"/>
<path id="Vector_3" d="M4.42449 15.508C4.42449 14.3722 3.49561 13.4512 2.35695 13.4512C1.21828 13.4512 0.288086 14.3722 0.288086 15.5066V19.8348C0.301713 20.3735 0.525595 20.8855 0.911973 21.2617C1.29835 21.6379 1.81664 21.8485 2.35629 21.8485C2.89594 21.8485 3.41423 21.6379 3.8006 21.2617C4.18698 20.8855 4.41086 20.3735 4.42449 19.8348V15.508ZM15.7834 9.82936C15.7834 9.28162 15.5655 8.75631 15.1777 8.369C14.7898 7.98169 14.2638 7.76411 13.7152 7.76411C13.1667 7.76411 12.6407 7.98169 12.2528 8.369C11.8649 8.75631 11.647 9.28162 11.647 9.82936V19.8348C11.647 20.3825 11.8649 20.9078 12.2528 21.2951C12.6407 21.6824 13.1667 21.9 13.7152 21.9C14.2638 21.9 14.7898 21.6824 15.1777 21.2951C15.5655 20.9078 15.7834 20.3825 15.7834 19.8348V9.82799V9.82936ZM27.1437 2.05849C27.1437 0.922773 26.2148 0.000478745 25.0761 0.000478745C23.9362 0.000478745 23.0073 0.922773 23.0073 2.05849V23.9468C23.0209 24.4855 23.2448 24.9975 23.6312 25.3737C24.0175 25.75 24.5358 25.9605 25.0755 25.9605C25.6151 25.9605 26.1334 25.75 26.5198 25.3737C26.9062 24.9975 27.1301 24.4855 27.1437 23.9468V2.05849ZM38.5026 9.82936C38.5026 9.28162 38.2847 8.75631 37.8969 8.369C37.509 7.98169 36.9829 7.76411 36.4344 7.76411C35.8859 7.76411 35.3598 7.98169 34.972 8.369C34.5841 8.75631 34.3662 9.28162 34.3662 9.82936V19.8348C34.3662 20.3825 34.5841 20.9078 34.972 21.2951C35.3598 21.6824 35.8859 21.9 36.4344 21.9C36.9829 21.9 37.509 21.6824 37.8969 21.2951C38.2847 20.9078 38.5026 20.3825 38.5026 19.8348V9.82799V9.82936ZM49.8497 15.508C49.85 14.9631 49.6337 14.4403 49.2482 14.0547C48.8627 13.669 48.3397 13.4519 47.794 13.4512C47.2472 13.4509 46.7225 13.6671 46.3349 14.0523C45.9474 14.4376 45.7286 14.9605 45.7265 15.5066V19.8348C45.7265 20.3807 45.9437 20.9044 46.3303 21.2905C46.7169 21.6765 47.2413 21.8934 47.7881 21.8934C48.3349 21.8934 48.8592 21.6765 49.2459 21.2905C49.6325 20.9044 49.8497 20.3807 49.8497 19.8348V15.508ZM61.2139 9.82936C61.2003 9.29239 60.9771 8.78194 60.592 8.40696C60.2068 8.03197 59.6902 7.82209 59.1523 7.82209C58.6144 7.82209 58.0978 8.03197 57.7126 8.40696C57.3275 8.78194 57.1043 9.29239 57.0907 9.82936V19.8348C57.0907 20.3807 57.3079 20.9044 57.6945 21.2905C58.0812 21.6765 58.6055 21.8934 59.1523 21.8934C59.6991 21.8934 60.2234 21.6765 60.6101 21.2905C60.9967 20.9044 61.2139 20.3807 61.2139 19.8348V9.82799V9.82936ZM72.5807 2.05849C72.5807 1.5125 72.3636 0.988871 71.9769 0.602797C71.5903 0.216724 71.0659 -0.000164032 70.5191 -0.000164032C69.9724 -0.000164032 69.448 0.216724 69.0614 0.602797C68.6747 0.988871 68.4576 1.5125 68.4576 2.05849V23.9468C68.4454 24.2247 68.4896 24.5022 68.5877 24.7626C68.6859 25.023 68.8357 25.2608 69.0284 25.4618C69.221 25.6628 69.4524 25.8227 69.7086 25.932C69.9648 26.0413 70.2405 26.0977 70.5191 26.0977C70.7978 26.0977 71.0735 26.0413 71.3297 25.932C71.5859 25.8227 71.8173 25.6628 72.0099 25.4618C72.2026 25.2608 72.3524 25.023 72.4506 24.7626C72.5487 24.5022 72.5929 24.2247 72.5807 23.9468V2.05849ZM83.945 9.82936C83.945 8.69232 83.0227 7.76869 81.8576 7.76869C81.3109 7.76904 80.7867 7.98614 80.4002 8.3723C80.0138 8.75846 79.7967 9.28206 79.7967 9.82799V19.8348C79.7967 20.9771 80.7203 21.898 81.8576 21.898C83.0227 21.898 83.945 20.9771 83.945 19.8348V9.82799V9.82936ZM95.2881 15.508C95.2881 14.9614 95.0707 14.4373 94.6837 14.0508C94.2967 13.6644 93.7718 13.4473 93.2245 13.4473C92.6772 13.4473 92.1523 13.6644 91.7653 14.0508C91.3783 14.4373 91.1609 14.9614 91.1609 15.508V19.8348C91.1609 20.9771 92.0858 21.8993 93.2245 21.8993C94.3618 21.8993 95.2868 20.9771 95.2868 19.8348V15.508H95.2881Z" fill="#15495D"/>
</g>
</g>
</g>
</svg>
