<svg width="162" height="162" viewBox="0 0 162 162" fill="none" xmlns="http://www.w3.org/2000/svg">
<g id="Dots">
<rect id="Rectangle 3 Copy 19" x="80.3809" width="3.08225" height="3.10811" rx="1.34409" transform="rotate(45 80.3809 0)" fill="#886CFF"/>
<rect id="Rectangle 3 Copy 18" x="89.0996" y="8.71875" width="3.08225" height="3.10811" rx="1.34409" transform="rotate(45 89.0996 8.71875)" fill="#886CFF"/>
<rect id="Rectangle 3 Copy 17" x="97.8184" y="17.4375" width="3.08225" height="3.10811" rx="1.34409" transform="rotate(45 97.8184 17.4375)" fill="#886CFF"/>
<rect id="Rectangle 3 Copy 16" x="106.535" y="26.1543" width="3.08225" height="3.10811" rx="1.34409" transform="rotate(45 106.535 26.1543)" fill="#886CFF"/>
<rect id="Rectangle 3 Copy 15" x="115.252" y="34.8711" width="3.08225" height="3.10811" rx="1.34409" transform="rotate(45 115.252 34.8711)" fill="#886CFF"/>
<rect id="Rectangle 3 Copy 14" x="123.971" y="43.5898" width="3.08225" height="3.10811" rx="1.34409" transform="rotate(45 123.971 43.5898)" fill="#886CFF"/>
<rect id="Rectangle 3 Copy 13" x="132.689" y="52.3086" width="3.08225" height="3.10811" rx="1.34409" transform="rotate(45 132.689 52.3086)" fill="#886CFF"/>
<rect id="Rectangle 3 Copy 12" x="141.406" y="61.0273" width="3.08225" height="3.10811" rx="1.34409" transform="rotate(45 141.406 61.0273)" fill="#886CFF"/>
<rect id="Rectangle 3 Copy 11" x="150.125" y="69.7441" width="3.08225" height="3.10811" rx="1.34409" transform="rotate(45 150.125 69.7441)" fill="#886CFF"/>
<rect id="Rectangle 3 Copy 10" x="158.844" y="78.4629" width="3.08225" height="3.10811" rx="1.34409" transform="rotate(45 158.844 78.4629)" fill="#886CFF"/>
<rect id="Rectangle 3 Copy 29" x="71.5898" y="8.79297" width="3.08225" height="3.10811" rx="1.34409" transform="rotate(45 71.5898 8.79297)" fill="#886CFF"/>
<rect id="Rectangle 3 Copy 28" x="80.3086" y="17.5098" width="3.08225" height="3.10811" rx="1.34409" transform="rotate(45 80.3086 17.5098)" fill="#886CFF"/>
<rect id="Rectangle 3 Copy 27" x="89.0254" y="26.2285" width="3.08225" height="3.10811" rx="1.34409" transform="rotate(45 89.0254 26.2285)" fill="#886CFF"/>
<rect id="Rectangle 3 Copy 26" x="97.7441" y="34.9453" width="3.08225" height="3.10811" rx="1.34409" transform="rotate(45 97.7441 34.9453)" fill="#886CFF"/>
<rect id="Rectangle 3 Copy 25" x="106.461" y="43.6621" width="3.08225" height="3.10811" rx="1.34409" transform="rotate(45 106.461 43.6621)" fill="#886CFF"/>
<rect id="Rectangle 3 Copy 24" x="115.18" y="52.3809" width="3.08225" height="3.10811" rx="1.34409" transform="rotate(45 115.18 52.3809)" fill="#886CFF"/>
<rect id="Rectangle 3 Copy 23" x="123.898" y="61.0996" width="3.08225" height="3.10811" rx="1.34409" transform="rotate(45 123.898 61.0996)" fill="#886CFF"/>
<rect id="Rectangle 3 Copy 22" x="132.615" y="69.8184" width="3.08225" height="3.10811" rx="1.34409" transform="rotate(45 132.615 69.8184)" fill="#886CFF"/>
<rect id="Rectangle 3 Copy 21" x="141.334" y="78.5352" width="3.08225" height="3.10811" rx="1.34409" transform="rotate(45 141.334 78.5352)" fill="#886CFF"/>
<rect id="Rectangle 3 Copy 20" x="150.053" y="87.2539" width="3.08225" height="3.10811" rx="1.34409" transform="rotate(45 150.053 87.2539)" fill="#886CFF"/>
<rect id="Rectangle 3 Copy 39" x="62.7988" y="17.584" width="3.08225" height="3.10811" rx="1.34409" transform="rotate(45 62.7988 17.584)" fill="#886CFF"/>
<rect id="Rectangle 3 Copy 38" x="71.5176" y="26.3027" width="3.08225" height="3.10811" rx="1.34409" transform="rotate(45 71.5176 26.3027)" fill="#886CFF"/>
<rect id="Rectangle 3 Copy 37" x="80.2344" y="35.0195" width="3.08225" height="3.10811" rx="1.34409" transform="rotate(45 80.2344 35.0195)" fill="#886CFF"/>
<rect id="Rectangle 3 Copy 36" x="88.9531" y="43.7363" width="3.08225" height="3.10811" rx="1.34409" transform="rotate(45 88.9531 43.7363)" fill="#886CFF"/>
<rect id="Rectangle 3 Copy 35" x="97.6699" y="52.4531" width="3.08225" height="3.10811" rx="1.34409" transform="rotate(45 97.6699 52.4531)" fill="#886CFF"/>
<rect id="Rectangle 3 Copy 34" x="106.389" y="61.1719" width="3.08225" height="3.10811" rx="1.34409" transform="rotate(45 106.389 61.1719)" fill="#886CFF"/>
<rect id="Rectangle 3 Copy 33" x="115.107" y="69.8906" width="3.08225" height="3.10811" rx="1.34409" transform="rotate(45 115.107 69.8906)" fill="#886CFF"/>
<rect id="Rectangle 3 Copy 32" x="123.824" y="78.6094" width="3.08225" height="3.10811" rx="1.34409" transform="rotate(45 123.824 78.6094)" fill="#886CFF"/>
<rect id="Rectangle 3 Copy 31" x="132.541" y="87.3262" width="3.08225" height="3.10811" rx="1.34409" transform="rotate(45 132.541 87.3262)" fill="#886CFF"/>
<rect id="Rectangle 3 Copy 30" x="141.26" y="96.0449" width="3.08225" height="3.10811" rx="1.34409" transform="rotate(45 141.26 96.0449)" fill="#886CFF"/>
<rect id="Rectangle 3 Copy 49" x="54.0078" y="26.373" width="3.08225" height="3.10811" rx="1.34409" transform="rotate(45 54.0078 26.373)" fill="#886CFF"/>
<rect id="Rectangle 3 Copy 48" x="62.7266" y="35.0918" width="3.08225" height="3.10811" rx="1.34409" transform="rotate(45 62.7266 35.0918)" fill="#886CFF"/>
<rect id="Rectangle 3 Copy 47" x="71.4453" y="43.8105" width="3.08225" height="3.10811" rx="1.34409" transform="rotate(45 71.4453 43.8105)" fill="#886CFF"/>
<rect id="Rectangle 3 Copy 46" x="80.1621" y="52.5273" width="3.08225" height="3.10811" rx="1.34409" transform="rotate(45 80.1621 52.5273)" fill="#886CFF"/>
<rect id="Rectangle 3 Copy 45" x="88.8789" y="61.2441" width="3.08225" height="3.10811" rx="1.34409" transform="rotate(45 88.8789 61.2441)" fill="#886CFF"/>
<rect id="Rectangle 3 Copy 44" x="97.5977" y="69.9629" width="3.08225" height="3.10811" rx="1.34409" transform="rotate(45 97.5977 69.9629)" fill="#886CFF"/>
<rect id="Rectangle 3 Copy 43" x="106.316" y="78.6816" width="3.08225" height="3.10811" rx="1.34409" transform="rotate(45 106.316 78.6816)" fill="#886CFF"/>
<rect id="Rectangle 3 Copy 42" x="115.033" y="87.3984" width="3.08225" height="3.10811" rx="1.34409" transform="rotate(45 115.033 87.3984)" fill="#886CFF"/>
<rect id="Rectangle 3 Copy 41" x="123.752" y="96.1172" width="3.08225" height="3.10811" rx="1.34409" transform="rotate(45 123.752 96.1172)" fill="#886CFF"/>
<rect id="Rectangle 3 Copy 40" x="132.471" y="104.836" width="3.08225" height="3.10811" rx="1.34409" transform="rotate(45 132.471 104.836)" fill="#886CFF"/>
<rect id="Rectangle 3 Copy 59" x="45.2168" y="35.1641" width="3.08225" height="3.10811" rx="1.34409" transform="rotate(45 45.2168 35.1641)" fill="#886CFF"/>
<rect id="Rectangle 3 Copy 58" x="53.9355" y="43.8828" width="3.08225" height="3.10811" rx="1.34409" transform="rotate(45 53.9355 43.8828)" fill="#886CFF"/>
<rect id="Rectangle 3 Copy 57" x="62.6523" y="52.6016" width="3.08225" height="3.10811" rx="1.34409" transform="rotate(45 62.6523 52.6016)" fill="#886CFF"/>
<rect id="Rectangle 3 Copy 56" x="71.3711" y="61.3184" width="3.08225" height="3.10811" rx="1.34409" transform="rotate(45 71.3711 61.3184)" fill="#886CFF"/>
<rect id="Rectangle 3 Copy 55" x="80.0879" y="70.0352" width="3.08225" height="3.10811" rx="1.34409" transform="rotate(45 80.0879 70.0352)" fill="#886CFF"/>
<rect id="Rectangle 3 Copy 54" x="88.8066" y="78.7539" width="3.08225" height="3.10811" rx="1.34409" transform="rotate(45 88.8066 78.7539)" fill="#886CFF"/>
<rect id="Rectangle 3 Copy 53" x="97.5254" y="87.4727" width="3.08225" height="3.10811" rx="1.34409" transform="rotate(45 97.5254 87.4727)" fill="#886CFF"/>
<rect id="Rectangle 3 Copy 52" x="106.242" y="96.1914" width="3.08225" height="3.10811" rx="1.34409" transform="rotate(45 106.242 96.1914)" fill="#886CFF"/>
<rect id="Rectangle 3 Copy 51" x="114.961" y="104.908" width="3.08225" height="3.10811" rx="1.34409" transform="rotate(45 114.961 104.908)" fill="#886CFF"/>
<rect id="Rectangle 3 Copy 50" x="123.68" y="113.627" width="3.08225" height="3.10811" rx="1.34409" transform="rotate(45 123.68 113.627)" fill="#886CFF"/>
<rect id="Rectangle 3 Copy 69" x="36.4258" y="43.957" width="3.08225" height="3.10811" rx="1.34409" transform="rotate(45 36.4258 43.957)" fill="#886CFF"/>
<rect id="Rectangle 3 Copy 68" x="45.1445" y="52.6758" width="3.08225" height="3.10811" rx="1.34409" transform="rotate(45 45.1445 52.6758)" fill="#886CFF"/>
<rect id="Rectangle 3 Copy 67" x="53.8613" y="61.3926" width="3.08225" height="3.10811" rx="1.34409" transform="rotate(45 53.8613 61.3926)" fill="#886CFF"/>
<rect id="Rectangle 3 Copy 66" x="62.5801" y="70.1094" width="3.08225" height="3.10811" rx="1.34409" transform="rotate(45 62.5801 70.1094)" fill="#886CFF"/>
<rect id="Rectangle 3 Copy 65" x="71.2969" y="78.8262" width="3.08225" height="3.10811" rx="1.34409" transform="rotate(45 71.2969 78.8262)" fill="#886CFF"/>
<rect id="Rectangle 3 Copy 64" x="80.0156" y="87.5449" width="3.08225" height="3.10811" rx="1.34409" transform="rotate(45 80.0156 87.5449)" fill="#886CFF"/>
<rect id="Rectangle 3 Copy 63" x="88.7344" y="96.2637" width="3.08225" height="3.10811" rx="1.34409" transform="rotate(45 88.7344 96.2637)" fill="#886CFF"/>
<rect id="Rectangle 3 Copy 62" x="97.4512" y="104.982" width="3.08225" height="3.10811" rx="1.34409" transform="rotate(45 97.4512 104.982)" fill="#886CFF"/>
<rect id="Rectangle 3 Copy 61" x="106.17" y="113.699" width="3.08225" height="3.10811" rx="1.34409" transform="rotate(45 106.17 113.699)" fill="#886CFF"/>
<rect id="Rectangle 3 Copy 60" x="114.889" y="122.418" width="3.08225" height="3.10811" rx="1.34409" transform="rotate(45 114.889 122.418)" fill="#886CFF"/>
<rect id="Rectangle 3 Copy 79" x="27.6348" y="52.748" width="3.08225" height="3.10811" rx="1.34409" transform="rotate(45 27.6348 52.748)" fill="#886CFF"/>
<rect id="Rectangle 3 Copy 80" x="19.1562" y="61.2246" width="3.08225" height="3.10811" rx="1.34409" transform="rotate(45 19.1562 61.2246)" fill="#886CFF"/>
<rect id="Rectangle 3 Copy 90" x="10.6777" y="69.7051" width="3.08225" height="3.10811" rx="1.34409" transform="rotate(45 10.6777 69.7051)" fill="#886CFF"/>
<rect id="Rectangle 3 Copy 100" x="2.19922" y="78.1836" width="3.08225" height="3.10811" rx="1.34409" transform="rotate(45 2.19922 78.1836)" fill="#886CFF"/>
<rect id="Rectangle 3 Copy 78" x="36.3535" y="61.4668" width="3.08225" height="3.10811" rx="1.34409" transform="rotate(45 36.3535 61.4668)" fill="#886CFF"/>
<rect id="Rectangle 3 Copy 81" x="27.875" y="69.9434" width="3.08225" height="3.10811" rx="1.34409" transform="rotate(45 27.875 69.9434)" fill="#886CFF"/>
<rect id="Rectangle 3 Copy 91" x="19.3965" y="78.4238" width="3.08225" height="3.10811" rx="1.34409" transform="rotate(45 19.3965 78.4238)" fill="#886CFF"/>
<rect id="Rectangle 3 Copy 101" x="10.918" y="86.9023" width="3.08225" height="3.10811" rx="1.34409" transform="rotate(45 10.918 86.9023)" fill="#886CFF"/>
<rect id="Rectangle 3 Copy 77" x="45.0703" y="70.1836" width="3.08225" height="3.10811" rx="1.34409" transform="rotate(45 45.0703 70.1836)" fill="#886CFF"/>
<rect id="Rectangle 3 Copy 82" x="36.5918" y="78.6621" width="3.08225" height="3.10811" rx="1.34409" transform="rotate(45 36.5918 78.6621)" fill="#886CFF"/>
<rect id="Rectangle 3 Copy 92" x="28.1133" y="87.1406" width="3.08225" height="3.10811" rx="1.34409" transform="rotate(45 28.1133 87.1406)" fill="#886CFF"/>
<rect id="Rectangle 3 Copy 102" x="19.6348" y="95.6191" width="3.08225" height="3.10811" rx="1.34409" transform="rotate(45 19.6348 95.6191)" fill="#886CFF"/>
<rect id="Rectangle 3 Copy 76" x="53.7891" y="78.9004" width="3.08225" height="3.10811" rx="1.34409" transform="rotate(45 53.7891 78.9004)" fill="#886CFF"/>
<rect id="Rectangle 3 Copy 83" x="45.3105" y="87.3789" width="3.08225" height="3.10811" rx="1.34409" transform="rotate(45 45.3105 87.3789)" fill="#886CFF"/>
<rect id="Rectangle 3 Copy 93" x="36.832" y="95.8574" width="3.08225" height="3.10811" rx="1.34409" transform="rotate(45 36.832 95.8574)" fill="#886CFF"/>
<rect id="Rectangle 3 Copy 103" x="28.3516" y="104.336" width="3.08225" height="3.10811" rx="1.34409" transform="rotate(45 28.3516 104.336)" fill="#886CFF"/>
<rect id="Rectangle 3 Copy 75" x="62.5059" y="87.6191" width="3.08225" height="3.10811" rx="1.34409" transform="rotate(45 62.5059 87.6191)" fill="#886CFF"/>
<rect id="Rectangle 3 Copy 84" x="54.0273" y="96.0957" width="3.08225" height="3.10811" rx="1.34409" transform="rotate(45 54.0273 96.0957)" fill="#886CFF"/>
<rect id="Rectangle 3 Copy 94" x="45.5488" y="104.574" width="3.08225" height="3.10811" rx="1.34409" transform="rotate(45 45.5488 104.574)" fill="#886CFF"/>
<rect id="Rectangle 3 Copy 104" x="37.0703" y="113.055" width="3.08225" height="3.10811" rx="1.34409" transform="rotate(45 37.0703 113.055)" fill="#886CFF"/>
<rect id="Rectangle 3 Copy 74" x="71.2246" y="96.3379" width="3.08225" height="3.10811" rx="1.34409" transform="rotate(45 71.2246 96.3379)" fill="#886CFF"/>
<rect id="Rectangle 3 Copy 85" x="62.7461" y="104.814" width="3.08225" height="3.10811" rx="1.34409" transform="rotate(45 62.7461 104.814)" fill="#886CFF"/>
<rect id="Rectangle 3 Copy 95" x="54.2676" y="113.293" width="3.08225" height="3.10811" rx="1.34409" transform="rotate(45 54.2676 113.293)" fill="#886CFF"/>
<rect id="Rectangle 3 Copy 105" x="45.7891" y="121.773" width="3.08225" height="3.10811" rx="1.34409" transform="rotate(45 45.7891 121.773)" fill="#886CFF"/>
<rect id="Rectangle 3 Copy 73" x="79.9434" y="105.055" width="3.08225" height="3.10811" rx="1.34409" transform="rotate(45 79.9434 105.055)" fill="#886CFF"/>
<rect id="Rectangle 3 Copy 86" x="71.4648" y="113.533" width="3.08225" height="3.10811" rx="1.34409" transform="rotate(45 71.4648 113.533)" fill="#886CFF"/>
<rect id="Rectangle 3 Copy 96" x="62.9863" y="122.012" width="3.08225" height="3.10811" rx="1.34409" transform="rotate(45 62.9863 122.012)" fill="#886CFF"/>
<rect id="Rectangle 3 Copy 106" x="54.5078" y="130.492" width="3.08225" height="3.10811" rx="1.34409" transform="rotate(45 54.5078 130.492)" fill="#886CFF"/>
<rect id="Rectangle 3 Copy 72" x="88.6602" y="113.773" width="3.08225" height="3.10811" rx="1.34409" transform="rotate(45 88.6602 113.773)" fill="#886CFF"/>
<rect id="Rectangle 3 Copy 87" x="80.1816" y="122.252" width="3.08225" height="3.10811" rx="1.34409" transform="rotate(45 80.1816 122.252)" fill="#886CFF"/>
<rect id="Rectangle 3 Copy 97" x="71.7031" y="130.73" width="3.08225" height="3.10811" rx="1.34409" transform="rotate(45 71.7031 130.73)" fill="#886CFF"/>
<rect id="Rectangle 3 Copy 107" x="63.2246" y="139.209" width="3.08225" height="3.10811" rx="1.34409" transform="rotate(45 63.2246 139.209)" fill="#886CFF"/>
<rect id="Rectangle 3 Copy 71" x="97.377" y="122.49" width="3.08225" height="3.10811" rx="1.34409" transform="rotate(45 97.377 122.49)" fill="#886CFF"/>
<rect id="Rectangle 3 Copy 88" x="88.9004" y="130.969" width="3.08225" height="3.10811" rx="1.34409" transform="rotate(45 88.9004 130.969)" fill="#886CFF"/>
<rect id="Rectangle 3 Copy 98" x="80.4199" y="139.447" width="3.08225" height="3.10811" rx="1.34409" transform="rotate(45 80.4199 139.447)" fill="#886CFF"/>
<rect id="Rectangle 3 Copy 108" x="71.9414" y="147.926" width="3.08225" height="3.10811" rx="1.34409" transform="rotate(45 71.9414 147.926)" fill="#886CFF"/>
<rect id="Rectangle 3 Copy 70" x="106.096" y="131.209" width="3.08225" height="3.10811" rx="1.34409" transform="rotate(45 106.096 131.209)" fill="#886CFF"/>
<rect id="Rectangle 3 Copy 89" x="97.6191" y="139.688" width="3.08225" height="3.10811" rx="1.34409" transform="rotate(45 97.6191 139.688)" fill="#886CFF"/>
<rect id="Rectangle 3 Copy 99" x="89.1387" y="148.166" width="3.08225" height="3.10811" rx="1.34409" transform="rotate(45 89.1387 148.166)" fill="#886CFF"/>
<rect id="Rectangle 3 Copy 109" x="80.6602" y="156.645" width="3.08225" height="3.10811" rx="1.34409" transform="rotate(45 80.6602 156.645)" fill="#886CFF"/>
</g>
</svg>
