<svg width="122" height="40" viewBox="0 0 122 40" fill="none" xmlns="http://www.w3.org/2000/svg">
<g id="1">
<path id="Vector" d="M15.0245 0H16.1094C19.8756 0.0822428 23.5804 1.60374 26.2413 4.29719C25.2589 5.30466 24.2559 6.27102 23.2939 7.27849C21.7997 5.92149 19.9984 4.87289 18.0334 4.5028C15.1269 3.88597 11.9952 4.44111 9.55943 6.10653C6.89851 7.85419 5.09728 10.8149 4.70837 13.9813C4.27853 17.1065 5.15868 20.3962 7.18507 22.8224C9.12959 25.1869 12.0975 26.6672 15.1678 26.77C18.0334 26.9345 21.0218 26.0504 23.1096 24.0355C24.7471 22.6168 25.5045 20.4579 25.7501 18.3607C22.3523 18.3607 18.9545 18.3813 15.5567 18.3607V14.1252H29.8643C30.6012 18.6691 29.5368 23.7887 26.0981 27.0373C23.8056 29.3401 20.6329 30.6971 17.3989 30.9644C14.2672 31.2728 11.0332 30.6766 8.24944 29.1551C4.91306 27.3663 2.25214 24.3439 0.942151 20.7869C-0.285965 17.5177 -0.306433 13.8168 0.839808 10.5271C1.88371 7.52522 3.88963 4.87289 6.46867 3.02242C8.94537 1.19252 11.9543 0.185046 15.0245 0Z" fill="#3780FF"/>
<path id="Vector_2" d="M97.1035 1.06836H101.484V30.4291C100.031 30.4291 98.5568 30.4496 97.1035 30.4085C97.124 20.6422 97.1035 10.8553 97.1035 1.06836Z" fill="#38B137"/>
<path id="Vector_3" d="M39.6072 11.2468C42.309 10.7328 45.236 11.3085 47.4671 12.9328C49.4935 14.3721 50.9058 16.6337 51.3357 19.101C51.8883 21.959 51.1924 25.0842 49.3502 27.3459C47.3648 29.8748 44.1103 31.2319 40.9376 31.0262C38.0311 30.8618 35.2064 29.402 33.4871 27.0169C31.5425 24.3851 31.0718 20.7665 32.1361 17.6823C33.2005 14.3721 36.2094 11.8431 39.6072 11.2468ZM40.2212 15.1534C39.1159 15.4412 38.0925 16.0786 37.3556 16.9833C35.3702 19.3683 35.493 23.2543 37.6831 25.4749C38.9317 26.7496 40.8148 27.3459 42.5547 26.9963C44.1717 26.7085 45.584 25.6188 46.3618 24.1795C47.7127 21.7328 47.3238 18.3608 45.2565 16.4487C43.9261 15.2151 41.9815 14.701 40.2212 15.1534Z" fill="#FA3913"/>
<path id="Vector_4" d="M61.3039 11.2464C64.3946 10.6501 67.7719 11.5137 70.0849 13.6931C73.8511 17.0856 74.2605 23.4389 71.0469 27.3454C69.1024 29.8127 65.9502 31.1697 62.839 31.0258C59.8711 30.9436 56.9441 29.4632 55.1838 27.0165C53.1983 24.323 52.7685 20.6221 53.8942 17.4763C55.02 14.2688 57.9675 11.8221 61.3039 11.2464ZM61.9179 15.1529C60.8126 15.4408 59.7892 16.0782 59.0523 16.9623C57.0873 19.3062 57.1692 23.1305 59.2775 25.3716C60.5261 26.7081 62.4706 27.366 64.2718 26.9959C65.8684 26.6875 67.3012 25.6183 68.079 24.1791C69.4094 21.7118 69.0205 18.3398 66.9327 16.4277C65.6023 15.1941 63.6578 14.7006 61.9179 15.1529Z" fill="#FCBD06"/>
<path id="Vector_5" d="M79.7058 12.4396C82.0597 10.9592 85.1914 10.548 87.7295 11.8227C88.5278 12.1723 89.1828 12.7685 89.8173 13.3648C89.8377 12.8097 89.8173 12.234 89.8377 11.6583C91.2091 11.6788 92.5805 11.6583 93.9724 11.6788V29.8134C93.9519 32.5479 93.256 35.447 91.291 37.4414C89.1418 39.6414 85.8464 40.3199 82.8784 39.8676C79.7058 39.3947 76.9425 37.0713 75.7144 34.1311C76.9425 33.5349 78.2321 33.062 79.5011 32.5068C80.2175 34.1928 81.6708 35.632 83.4925 35.961C85.3142 36.29 87.4225 35.8377 88.6096 34.3162C89.8787 32.7535 89.8787 30.6152 89.8173 28.7031C88.8757 29.6283 87.7909 30.4508 86.4809 30.7592C83.6358 31.561 80.5041 30.5741 78.3139 28.6414C76.1033 26.7087 74.7933 23.7274 74.9161 20.7667C74.9775 17.4153 76.8607 14.1872 79.7058 12.4396ZM83.9428 15.0713C82.6942 15.2769 81.5275 15.976 80.7292 16.9424C78.8052 19.2452 78.8052 22.9255 80.7497 25.1872C81.855 26.5237 83.6358 27.2638 85.3551 27.0788C86.9721 26.9143 88.4664 25.8863 89.2646 24.4676C90.6156 22.062 90.3904 18.7928 88.5687 16.6956C87.4429 15.4003 85.6417 14.7629 83.9428 15.0713Z" fill="#3780FF"/>
<path id="Vector_6" d="M106.744 13.4873C109.2 11.1845 112.987 10.4032 116.139 11.6163C119.128 12.7471 121.031 15.6051 121.993 18.5453C117.552 20.3957 113.13 22.2256 108.689 24.0761C109.303 25.248 110.244 26.3172 111.513 26.749C113.294 27.3864 115.423 27.1602 116.917 25.9677C117.511 25.5153 117.981 24.9191 118.432 24.3434C119.557 25.1041 120.683 25.8443 121.809 26.6051C120.212 29.0107 117.531 30.6966 114.645 30.9639C111.452 31.3546 108.054 30.1209 105.987 27.6125C102.589 23.6649 102.916 17.0443 106.744 13.4873ZM108.934 17.2911C108.238 18.2985 107.952 19.5322 107.972 20.7453C110.94 19.5116 113.908 18.278 116.876 17.0238C116.385 15.8724 115.198 15.1733 113.99 14.9883C112.045 14.6387 110.019 15.6873 108.934 17.2911Z" fill="#FA3913"/>
</g>
</svg>
