<svg width="61" height="60" viewBox="0 0 61 60" fill="none" xmlns="http://www.w3.org/2000/svg">
<g id="2">
<path id="Vector" d="M0.993164 0H60.9932V60H0.993164V0Z" fill="#F0DB4F"/>
<path id="Vector_2" d="M56.0821 45.69C55.6429 42.9524 53.8577 40.6539 48.5707 38.5094C46.7342 37.6653 44.6866 37.0608 44.0764 35.6691C43.8597 34.8592 43.8311 34.403 43.968 33.9125C44.3616 32.3212 46.2608 31.825 47.7665 32.2813C48.7361 32.6064 49.6543 33.3536 50.2076 34.5455C52.7969 32.8688 52.7912 32.8801 54.5992 31.7281C53.9376 30.7015 53.584 30.228 53.1505 29.7889C51.5935 28.0494 49.4718 27.154 46.0783 27.2224C45.4908 27.2965 44.8977 27.3763 44.3102 27.4505C42.6164 27.8783 41.0022 28.768 40.0555 29.96C37.2152 33.1825 38.0251 38.8231 41.4813 41.1445C44.8863 43.6996 49.8882 44.2813 50.527 46.6711C51.1486 49.5969 48.3768 50.5436 45.622 50.2072C43.5916 49.7851 42.4624 48.7528 41.2418 46.8764C38.9947 48.1768 38.9947 48.1768 36.6848 49.5057C37.2323 50.7034 37.8083 51.2452 38.7266 52.2832C43.0726 56.692 53.949 56.4753 55.8996 49.8022C55.9794 49.5741 56.5042 48.0455 56.0821 45.69ZM33.6106 27.576H27.9984C27.9984 32.4239 27.9757 37.2376 27.9757 42.0855C27.9757 45.171 28.1354 47.9999 27.6335 48.8668C26.8122 50.5721 24.6848 50.3611 23.7152 50.0303C22.7285 49.5455 22.2266 48.8554 21.6449 47.8801C21.4852 47.6007 21.3654 47.3839 21.3254 47.3668C19.8027 48.2965 18.2855 49.2318 16.7627 50.1615C17.5213 51.7185 18.6391 53.0703 20.0707 53.9485C22.2095 55.2318 25.084 55.6253 28.0897 54.9352C30.046 54.3649 31.7342 53.1843 32.6182 51.3877C33.8958 49.0322 33.622 46.1805 33.6106 43.0265C33.6391 37.882 33.6106 32.7376 33.6106 27.576Z" fill="#323330"/>
</g>
</svg>
