<svg width="96" height="40" viewBox="0 0 96 40" fill="none" xmlns="http://www.w3.org/2000/svg">
<g id="4">
<path id="Vector" d="M6.96443 15.6742C6.96443 14.6329 7.80886 14.2323 9.2077 14.2323C11.2131 14.2323 13.7464 14.8466 15.7519 15.9414V9.66618C13.5617 8.78506 11.3979 8.43791 9.2077 8.43791C3.85059 8.43791 0.288086 11.2684 0.288086 15.9949C0.288086 23.3645 10.3158 22.1897 10.3158 25.3674C10.3158 26.5955 9.26039 26.9962 7.78251 26.9962C5.59231 26.9962 2.79501 26.0882 0.578281 24.8599V31.2151C3.03251 32.2832 5.51309 32.737 7.78251 32.737C13.2714 32.737 17.045 29.9869 17.045 25.2071C17.0187 17.2498 6.96443 18.6649 6.96443 15.6742ZM24.8033 3.09752L18.3644 4.48594L18.3381 25.8745C18.3381 29.8267 21.2673 32.737 25.1729 32.737C27.3367 32.737 28.92 32.3366 29.7908 31.8559V26.4354C28.9465 26.7825 24.7769 28.0108 24.7769 24.0588V14.5794H29.7908V8.89189H24.7769L24.8033 3.09752ZM37.9979 10.8678L37.5756 8.89189H31.8756V32.2564H38.4729V16.422C40.0296 14.366 42.6687 14.7398 43.4867 15.0334V8.89189C42.6423 8.5714 39.5548 7.98393 37.9979 10.8678ZM45.0964 8.89189H51.72V32.2564H45.0964V8.89189ZM45.0964 6.86249L51.72 5.42056V0L45.0964 1.41527V6.8623V6.86249ZM65.495 8.43791C62.9089 8.43791 61.2464 9.66618 60.3229 10.5208L59.9796 8.86523H54.1742V40L60.7714 38.5849L60.7979 31.0281C61.7479 31.7224 63.1464 32.7104 65.4687 32.7104C70.1923 32.7104 74.4937 28.8652 74.4937 20.4007C74.4673 12.6569 70.1131 8.43791 65.495 8.43791ZM63.9117 26.8358C62.3548 26.8358 61.431 26.2752 60.7979 25.5809L60.7714 15.6742C61.4575 14.8999 62.4075 14.366 63.9117 14.366C66.3131 14.366 67.9756 17.0895 67.9756 20.5875C67.9756 24.1656 66.3394 26.8358 63.9117 26.8358ZM95.2881 20.6676C95.2881 13.8318 92.0158 8.43791 85.7617 8.43791C79.481 8.43791 75.681 13.832 75.681 20.6143C75.681 28.6516 80.1673 32.7104 86.606 32.7104C89.7464 32.7104 92.1214 31.9894 93.9158 30.9748V25.6342C92.1215 26.5422 90.0631 27.103 87.4506 27.103C84.8908 27.103 82.6214 26.195 82.3312 23.0442H95.2354C95.2354 22.6969 95.2881 21.3084 95.2881 20.6676ZM82.2519 18.1309C82.2519 15.1136 84.0729 13.8585 85.7354 13.8585C87.345 13.8585 89.0604 15.1136 89.0604 18.1309H82.2519Z" fill="#6772E5"/>
</g>
</svg>
