<svg width="61" height="60" viewBox="0 0 61 60" fill="none" xmlns="http://www.w3.org/2000/svg">
<g id="6">
<path id="Vector" d="M0.288086 30V0H60.2881V60H0.288086" fill="#007ACC"/>
<path id="Vector_2" d="M13.4424 30.1057V32.5507H21.2424V54.7507H26.7774V32.5507H34.5774V30.1507C34.5774 28.8007 34.5774 27.7057 34.5174 27.6757C34.5174 27.6307 29.7624 27.6157 23.9874 27.6157L13.4874 27.6607V30.1207L13.4424 30.1057ZM48.4974 27.6007C50.0274 27.9607 51.1974 28.6507 52.2474 29.7457C52.8024 30.3457 53.6274 31.3957 53.6874 31.6657C53.6874 31.7557 51.0924 33.5107 49.5174 34.4857C49.4574 34.5307 49.2174 34.2757 48.9774 33.8857C48.1974 32.7757 47.4024 32.2957 46.1574 32.2057C44.3574 32.0857 43.1574 33.0307 43.1574 34.6057C43.1574 35.0857 43.2474 35.3557 43.4274 35.7457C43.8324 36.5707 44.5824 37.0657 46.9074 38.0857C51.1974 39.9307 53.0574 41.1457 54.1824 42.8857C55.4574 44.8357 55.7424 47.8957 54.8874 50.1907C53.9274 52.6957 51.5874 54.3907 48.2424 54.9457C47.1924 55.1257 44.7924 55.0957 43.6674 54.9007C41.2674 54.4507 38.9724 53.2507 37.5624 51.7057C37.0074 51.1057 35.9424 49.5007 36.0024 49.3957L36.5724 49.0357L38.8224 47.7307L40.5174 46.7407L40.9074 47.2657C41.4024 48.0457 42.5124 49.0957 43.1574 49.4557C45.1074 50.4607 47.7174 50.3257 49.0074 49.1557C49.5624 48.6457 49.8024 48.1057 49.8024 47.3557C49.8024 46.6657 49.6974 46.3507 49.3524 45.8257C48.8724 45.1657 47.9124 44.6257 45.2124 43.4257C42.1074 42.1057 40.7874 41.2657 39.5574 39.9757C38.8524 39.1957 38.2074 37.9807 37.9074 36.9757C37.6824 36.1057 37.6074 33.9757 37.8174 33.1207C38.4624 30.1207 40.7274 28.0207 43.9674 27.4207C45.0174 27.2107 47.4924 27.3007 48.5274 27.5707L48.4974 27.6007Z" fill="white"/>
</g>
</svg>
